<svg width="88" height="88" xmlns="http://www.w3.org/2000/svg" viewBox="0 0 100 100" preserveAspectRatio="xMidYMid" class="uil-default"><path fill="none" class="bk" d="M0 0h100v100H0z"/><rect x="48.5" y="40" width="3" height="20" rx="5" ry="5" fill="#009688" transform="translate(0 -30)"><animate attributeName="opacity" from="1" to="0" dur="1.5s" begin="0s" repeatCount="indefinite"/></rect><rect x="48.5" y="40" width="3" height="20" rx="5" ry="5" fill="#009688" transform="rotate(32.727 101.085 65)"><animate attributeName="opacity" from="1" to="0" dur="1.5s" begin="0.13636363636363635s" repeatCount="indefinite"/></rect><rect x="48.5" y="40" width="3" height="20" rx="5" ry="5" fill="#009688" transform="rotate(65.455 73.34 65)"><animate attributeName="opacity" from="1" to="0" dur="1.5s" begin="0.2727272727272727s" repeatCount="indefinite"/></rect><rect x="48.5" y="40" width="3" height="20" rx="5" ry="5" fill="#009688" transform="rotate(98.182 62.998 65)"><animate attributeName="opacity" from="1" to="0" dur="1.5s" begin="0.4090909090909091s" repeatCount="indefinite"/></rect><rect x="48.5" y="40" width="3" height="20" rx="5" ry="5" fill="#009688" transform="rotate(130.909 56.85 65)"><animate attributeName="opacity" from="1" to="0" dur="1.5s" begin="0.5454545454545454s" repeatCount="indefinite"/></rect><rect x="48.5" y="40" width="3" height="20" rx="5" ry="5" fill="#009688" transform="rotate(163.636 52.157 65)"><animate attributeName="opacity" from="1" to="0" dur="1.5s" begin="0.6818181818181818s" repeatCount="indefinite"/></rect><rect x="48.5" y="40" width="3" height="20" rx="5" ry="5" fill="#009688" transform="rotate(-163.636 47.843 65)"><animate attributeName="opacity" from="1" to="0" dur="1.5s" begin="0.8181818181818182s" repeatCount="indefinite"/></rect><rect x="48.5" y="40" width="3" height="20" rx="5" ry="5" fill="#009688" transform="rotate(-130.909 43.15 65)"><animate attributeName="opacity" from="1" to="0" dur="1.5s" begin="0.9545454545454546s" repeatCount="indefinite"/></rect><rect x="48.5" y="40" width="3" height="20" rx="5" ry="5" fill="#009688" transform="rotate(-98.182 37.002 65)"><animate attributeName="opacity" from="1" to="0" dur="1.5s" begin="1.0909090909090908s" repeatCount="indefinite"/></rect><rect x="48.5" y="40" width="3" height="20" rx="5" ry="5" fill="#009688" transform="rotate(-65.455 26.66 65)"><animate attributeName="opacity" from="1" to="0" dur="1.5s" begin="1.2272727272727273s" repeatCount="indefinite"/></rect><rect x="48.5" y="40" width="3" height="20" rx="5" ry="5" fill="#009688" transform="rotate(-32.727 -1.085 65)"><animate attributeName="opacity" from="1" to="0" dur="1.5s" begin="1.3636363636363635s" repeatCount="indefinite"/></rect></svg>