<?xml version="1.0" encoding="iso-8859-1"?>
<!-- Generator: Adobe Illustrator 16.0.0, SVG Export Plug-In . SVG Version: 6.00 Build 0)  -->
<!DOCTYPE svg PUBLIC "-//W3C//DTD SVG 1.1//EN" "http://www.w3.org/Graphics/SVG/1.1/DTD/svg11.dtd">
<svg version="1.1" id="Capa_1" xmlns="http://www.w3.org/2000/svg" xmlns:xlink="http://www.w3.org/1999/xlink" x="0px" y="0px"
	 width="119.683px" height="119.683px" viewBox="0 0 119.683 119.683" style="enable-background:new 0 0 119.683 119.683;"
	 xml:space="preserve">
<g>
	<g>
		<circle cx="59.058" cy="18.729" r="18.729"/>
		<path d="M103.871,101.242c-0.698-5.748-4.909-7.937-12.004-9.021c-4.976,4.548-13.326,8.022-27.24,8.022
			c-1.926,0-3.786-0.489-5.454-1.426c-1.668,0.937-3.528,1.426-5.456,1.426c-13.785,0-22.109-3.412-27.1-7.898
			c-6.38,1.253-10.152,3.544-10.806,8.896c-0.416,3.445,0.659,6.824,3.029,9.518c6.678,7.592,24.951,8.85,35.247,8.923
			c0.021,0,0.043,0,0.063,0c2.184,0,4.173-0.821,5.69-2.168c1.516,1.347,3.506,2.168,5.689,2.168c0.021,0,0.042,0,0.063,0
			c10.297-0.073,28.57-1.331,35.25-8.925C103.215,108.066,104.287,104.688,103.871,101.242z"/>
		<path d="M54.024,97.725c2.176,0,4.122-0.961,5.455-2.476c1.333,1.515,3.28,2.476,5.454,2.476c20.907,0,27.621-8.242,29.574-15.16
			c4.568-16.186-13.771-35.102-22.188-40.263c-0.564-0.348-1.166-0.578-1.776-0.755c-2.085-1.393-4.43-2.418-6.817-3.004
			l-4.667,4.697l-4.526-4.749c-0.014,0.004-0.029,0.005-0.045,0.01c-3.072,0.734-6.065,2.2-8.541,4.242
			c-8.681,5.72-25.944,24.063-21.498,39.822C26.402,89.482,33.117,97.725,54.024,97.725z M39.889,71.49v6.197
			c0.489,0.223,1.511,0.877,1.519,0.948c0.854,0.621,4.245,1.954,11.81,1.954c1.928,0,3.788,0.488,5.456,1.425
			c1.668-0.937,3.528-1.425,5.454-1.425c6.296,0,9.693-0.922,11.153-1.591c0.986-0.202,1.972-0.451,2.947-0.73v-8.436
			c1.878,3.455,2.876,6.679,2.281,8.782c-0.793,2.815-6.763,4.565-15.577,4.565c-2.174,0-4.12,0.96-5.454,2.476
			c-1.333-1.516-3.279-2.476-5.455-2.476c-8.813,0-14.784-1.75-15.577-4.565C37.95,76.854,38.57,74.304,39.889,71.49z"/>
	</g>
</g>
<g>
</g>
<g>
</g>
<g>
</g>
<g>
</g>
<g>
</g>
<g>
</g>
<g>
</g>
<g>
</g>
<g>
</g>
<g>
</g>
<g>
</g>
<g>
</g>
<g>
</g>
<g>
</g>
<g>
</g>
</svg>
