<svg version="1" xmlns="http://www.w3.org/2000/svg" width="666.667" height="666.667" viewBox="0 0 500.000000 500.000000"><path d="M242.8 2c-7.9 4.2-10.8 13.2-6.6 20.4 4.4 7.4 10.2 9.6 18.3 6.9 8.1-2.7 12.2-9.3 10.5-16.9C262.7 2.1 252-2.8 242.8 2z"/><path d="M218.6 34.1c-20.2 5.5-32.8 9.6-35.3 11.4-4.4 3.1-1.6 11.6 4.1 12.7 2.5.5 4.5.2 19.1-2.5 4.4-.8 11.4-1.8 15.6-2.2l7.6-.7.6 2.8c.3 1.6.6 23.3.6 48.2l.2 45.5 2.2 1.8c3.4 2.8 7.2 3.3 11.2 1.4 3.4-1.7 3.5-1.9 3.6-7.4.1-9.9.6-32.5.8-35.5 0-1.6.3-2.7.6-2.5.2.3.7 8.3 1 17.9.3 9.6.8 19.1 1.1 21 .6 4.7 3.5 7.4 7.9 7.4 4.5 0 7.2-2.7 8-7.7.7-4.5 1.4-33.9 1.4-68.4l.1-25.1 4.8.4c2.6.2 5.8.6 7.2.9 12.4 2.6 25.7 4.8 29.4 4.7 7.7-.2 11.4-7.7 6.1-12.6-1.3-1.2-5.9-3.3-10.2-4.5-8-2.4-21.6-6-24.3-6.6-.8-.2-4-1.2-7-2.2-5.9-2.1-9-2.1-15.9.2-5.7 1.9-12.5 1.8-17.6-.1-6.3-2.4-8.1-2.3-22.9 1.7zM148.5 59.3c-1.7.7-8.6 4.3-15.3 8.2-6.8 3.8-15.3 8.6-19 10.5-5.6 3-7.2 4.4-9.8 9-4.9 8.4-9.3 13-15.1 15.5-4.2 1.9-5.9 3.5-8.8 7.9-2 3.1-3.9 6.4-4.2 7.3-.4.9-2.3 4.4-4.4 7.8-6 9.9-13.9 25.9-13.9 28.2 0 2.6 4.4 6.3 7.4 6.3 4.4-.1 7.8-3.3 14.7-14 2-3 6.4-9 9.8-13.3l6.2-7.8 2.7 2c1.5 1 17 16.2 34.5 33.6l31.9 31.7 3.6-.5c4.1-.7 9.2-5.5 9.2-8.6 0-2.2-1.1-3.5-15.3-18.1-6.2-6.3-12.3-12.8-13.7-14.4l-2.5-3 2.5 2c2.8 2.2 10.2 8.9 20.2 18.3 8.9 8.4 11.6 10.2 14.8 9.4 3.9-.9 7-4.3 7-7.6 0-3.8-4.4-8.9-28.6-33.7-39.1-39.9-38.5-39.2-36.8-41.2.9-.9 8.5-6.4 16.8-12.2 14.8-10.2 17.6-13 17.6-17.7 0-2.5-4.3-6.9-6.7-6.8-1 0-3.2.6-4.8 1.2zM342.5 60.5c-4.5 4.4-2.2 11 5.4 15.5 5.7 3.4 23.2 16.4 25.5 18.9 1.8 2 1.7 2.1-5 9.2-3.8 3.9-18.9 19.2-33.6 33.9-29.4 29.5-29.5 29.6-24.3 35.8 3.1 3.6 6.8 4.8 9.6 2.8 1.1-.7 7.7-6.9 14.7-13.7 7-6.8 13.9-13.3 15.2-14.4l2.5-2-2 2.5c-2.3 2.9-8.5 9.6-18.1 19.8-8.9 9.5-10.5 12-9.7 15.2.9 4 4.3 7 7.8 7 3.7 0 9.4-4.9 32.8-27.9 35-34.5 40-39.1 41.5-37.9 1.2 1 8.9 11.9 19.7 27.7 4.3 6.4 11.5 9 14.8 5.3 3.6-3.9 3.1-6.4-3.3-18.7-3.4-6.5-7.2-13.4-8.5-15.4-1.3-2-3.9-6.5-5.7-10.1-2.8-5.5-4.1-7-8.8-9.6-8.3-4.8-12.3-8.7-15.6-15.1-3.1-6.2-1.8-5.2-24.4-18.3-11.4-6.7-24.2-13-26.2-13-1 0-3 1.1-4.3 2.5z"/><path d="M77.5 70c-5 2-8.5 8.3-8.5 15.3 0 13.7 18 19.6 26.3 8.6 6.1-8.3 5.1-17.2-2.7-22.5-3.6-2.5-10.9-3.2-15.1-1.4zM407.3 71c-5.7 3.4-8.5 12.2-5.9 18.4 1.5 3.5 6.5 7.9 10.5 9.1 10.7 3.3 19.8-4.5 18.9-16.1-.5-6.1-3.1-9.7-8.5-12-4.6-2-11.2-1.7-15 .6zM46.9 182.2c-2.9 2.4-4.5 6.3-8.3 20.3-2.1 7.7-4.9 17.5-6.2 21.7l-2.3 7.7 1.9 7.3c2.4 8.8 2.4 14 .3 19.3-2.3 5.9-1.9 9.4 3 27 8.5 30.1 9.9 33.5 14 33.5 4.3 0 6.4-1.2 7.9-4.3 1.6-3.5 1.5-6.9-.7-16.7-1.5-7.2-2.1-11.2-3.1-21.1-.6-6-.4-6.7 1.3-7.1 1.1-.3 22.6-.6 47.7-.7 33.2-.2 46.3-.5 47.7-1.4 4-2.5 4.7-10.4 1.1-13.9-1.6-1.6-4.1-1.9-22.5-2.1-11.4-.2-21-.7-21.4-1-.3-.4 1.4-.7 3.8-.8 27.7-.4 37.8-1.3 40.1-3.6 4.1-4.2 2.5-11.3-3-13.4-1.5-.6-20.8-1.2-45.2-1.6-56.6-.7-50.5-.2-50.5-3.8 0-1.7.7-6.8 1.7-11.5.9-4.7 1.9-10.5 2.3-13 .3-2.5 1-5.9 1.4-7.5 1.1-4.3.5-8.5-1.7-11.4-2.2-2.9-6.9-3.9-9.3-1.9zM444.6 182.9c-2.8 3.1-3.4 7.1-1.9 14.6.7 3.8 1.6 8.6 1.9 10.5.3 1.9.7 4.2.9 5 .2.8.7 4.9 1 9.1l.7 7.6-2.7.5c-1.5.3-23 .6-47.8.7l-45.2.2-2.4 2.3c-3.1 3.1-3.4 9.8-.5 12.6 1.8 1.8 3.7 2 23.7 2.4 12 .2 22 .6 22.4 1 .3.3-2 .6-5.3.7-28.4.4-38.2 1.3-40.6 3.7-4.8 4.7-1.8 12.7 5.2 13.7 4.2.6 37.8 1.4 70.3 1.5l23.7.1-.5 4.7c-.3 2.6-1.9 11.8-3.5 20.5-3 16.5-3 18.9.7 22.9 1.8 2.1 6.1 2.3 8.4.5 3.2-2.4 6-10.1 11.3-31.2 1.4-5.6 3.2-11.6 3.9-13.5 1.6-3.8 1.4-6.8-.9-14.8-1.9-6.4-1.6-12.2.7-18.4 2.1-5.4 2.1-5.6-3.2-24.8-5.9-21.2-8.9-30-11-32.1-2.4-2.4-7.1-2.4-9.3 0z"/><path d="M10.5 235.5c-2.2.8-4.1 1.5-4.2 1.5-.2 0-1.6 1.9-3.3 4.2-9.2 12.7 6 30.5 19.4 22.6 6.7-3.9 8.2-7 7.7-15.8-.1-3.6-5-10.7-8-11.9-4.9-1.9-7.6-2.1-11.6-.6zM477.6 236.3c-7.8 4.4-9.8 10.7-6.2 20 4.6 12.1 21 12 27.5-.2 4.4-8.2-4.7-22.1-14.4-22.1-1.6 0-4.8 1-6.9 2.3zM328.4 309c-2.5 1-6.4 5.7-6.4 7.7 0 2.1 2.6 5.2 15.8 18.8 20 20.6 18.9 20.6-3.2.1-6-5.6-12-10.9-13.4-11.8-4.9-3.2-12.2.8-12.2 6.8 0 3.6 3.4 7.6 29.7 34.4 34.5 35.2 37.3 38.3 36.1 39.7-1.6 1.9-20.7 15.3-21.8 15.3-.6 0-1 .4-1 .8s-1.4 1.6-3.1 2.6c-8.8 5.2-11.5 12.4-6.3 16.5 1.5 1.2 3.4 2.1 4.3 2.1 2.2 0 11.8-4.7 23.6-11.5 5.5-3.2 12.7-7.2 16-8.9 5.1-2.7 6.5-4.1 10-9.8 5.2-8.7 7.7-11.2 13.9-14.1 2.8-1.4 5.8-3.3 6.7-4.3 4.3-5.1 24.9-43.9 24.9-46.8 0-.9-1.1-2.8-2.5-4.1-4.9-5-10.4-2.5-17.1 7.7-5.6 8.7-15.5 21.8-17.7 23.6-1.9 1.6-4.6-.9-42.3-38.6-28-28.1-28.5-28.4-34-26.2zM158.8 315.7c-4 3.8-14 13.4-22.3 21.5-38.2 37.3-39.8 38.8-41.3 37.5-.8-.6-6.3-8.1-12.2-16.7-6.6-9.5-11.9-16.1-13.5-16.8-5.5-2.5-9.6-.7-11 4.9-.5 2 .7 5.2 5.4 14.2 3.3 6.4 7.5 14 9.4 16.9 1.8 2.9 4.3 7.4 5.5 10.1 1.7 3.6 3.6 5.6 7.7 8.2 3 1.9 5.8 3.5 6.3 3.5 1.7 0 7.7 7.2 10.1 12.2 2.9 5.9 3.3 6.2 30.3 21.2 18.2 10.1 21.5 11.1 24.6 7.1 4.6-5.9 2.4-9.8-10.4-18.5-5.6-3.9-10.9-7.6-11.6-8.3-.7-.6-3.4-2.9-6.1-5-3.7-3-4.5-4.2-3.8-5.5.5-.9 15.6-16.5 33.6-34.5l32.7-32.9-.5-3.6c-.7-4.2-5.5-9.2-8.8-9.2-1.3 0-6.3 4.2-13.2 10.9C152 350 148.8 353 148.3 353c-.8 0 4.1-5.6 15.6-17.9 5.8-6.2 11.3-12.5 12.3-13.9 3.3-5-.7-12.2-6.9-12.2-2.7 0-4.6 1.2-10.5 6.7zM235.5 348.2c-2 1.7-2.9 3.6-3.1 6.4-.2 2.1-.7 23.5-1 47.4-.3 23.9-.7 44.1-.9 44.7-.3.9-1.7 1.1-4 .8-7.2-1-10.1-1.5-12.5-2-4.6-.9-19.6-3.5-22.8-3.9-3.8-.4-9.5 2.9-10 5.8-1.3 6.4 2.3 8.7 21.8 14.1 7.4 2 16.2 4.6 19.5 5.7 7.1 2.3 12.4 2.4 18.4.3 5.5-1.9 12.5-1.9 17.6.2 2.2.8 5.6 1.5 7.5 1.5 4.4 0 45.2-11.6 49.4-14 3.5-2 4.7-7.1 2.4-9.9-3.5-4.2-6.6-4.4-25.3-.9-4.4.8-11.2 1.8-15.1 2.1l-7.1.7-.5-2.7c-.3-1.5-.6-23-.7-47.7-.2-32.5-.5-45.5-1.4-46.9-1.5-2.4-6.1-4-9.7-3.3-5.7 1.2-5.9 2.1-6.3 24.7-.3 11.4-.7 21.1-1.1 21.4-.3.3-.6-1.6-.7-4.3-.3-25.6-1.4-37.3-3.6-39.5-3.1-3.2-7.6-3.4-10.8-.7z"/><path d="M409 402.3c-6.9 4.6-10.1 14.1-6.8 20.5 2.7 5.7 8.4 8.6 15.6 8 4.8-.4 6-1 8.8-4.1 3.7-4 4.9-8.7 4-15.2-.8-5.1-4.4-8.8-10.4-10.5-5.5-1.5-7.5-1.3-11.2 1.3zM75.8 402.6c-1.4 1-3.6 3.5-4.8 5.7-3 5.2-2.5 13.5 1.1 17.3 7.1 7.7 21 7 25.3-1.3 4-7.8 2.6-14.9-3.9-19.9-4.7-3.5-13.5-4.4-17.7-1.8zM247.5 470.2c-8.4 1.9-13.1 7.3-12.8 15 .4 8 7.3 14.8 15.1 14.8 5.1-.1 10.8-3.5 13.6-8.2 3.2-5.5 3.3-9.1.3-14.2-3.8-6.8-8.9-9.1-16.2-7.4z"/></svg>